<svg width="194" height="34" viewBox="0 0 194 34" fill="none" xmlns="http://www.w3.org/2000/svg">
<path d="M54.1315 17.93C54.8515 17.93 56.1115 17.93 58.1515 17.93C62.3215 17.93 64.8115 15.32 64.8415 11.54C64.8115 7.79 62.3215 5.18 58.1515 5.18C55.7215 5.18 53.2615 5.18 50.8315 5.18C50.6515 5.18 50.5315 5.3 50.5315 5.51L50.5015 25.7C50.5015 25.88 50.6515 26 50.8315 26H53.8015C53.9815 26 54.1315 25.88 54.1315 25.7V17.93ZM54.1315 14.51V8.57H57.8515C59.8015 8.57 61.2415 9.5 61.2415 11.57C61.2415 13.64 59.7715 14.51 57.8515 14.51H54.1315ZM77.4321 13.82C76.4421 12.44 74.9121 11.66 72.9321 11.66C68.7021 11.66 65.8521 14.6 65.8521 18.98C65.8521 23.33 68.7021 26.36 72.9321 26.33C74.9121 26.33 76.4421 25.52 77.4321 24.11L77.8521 25.7C77.9121 25.88 78.0021 26 78.1821 26H80.4921C80.6721 26 80.7921 25.85 80.7921 25.7V12.2C80.7921 12.02 80.6721 11.9 80.4921 11.9H78.2121C78.0321 11.9 77.9421 12.02 77.8821 12.2L77.4321 13.82ZM69.2421 18.98C69.2421 16.61 70.8021 15.05 73.1421 15.05C75.5121 15.05 77.1321 16.61 77.1621 18.98C77.1321 21.35 75.5121 22.94 73.1421 22.94C70.8321 22.94 69.2421 21.32 69.2421 18.98ZM90.5695 11.6C86.3095 11.6 83.4595 14.6 83.4595 18.98C83.4595 23.36 86.3095 26.3 90.5695 26.33C92.4595 26.33 93.9295 25.61 94.8895 24.38V25.52C94.8895 28.13 93.3895 29.72 90.6295 29.72C88.9195 29.66 87.4795 29.12 86.6095 28.61C86.5495 28.58 86.4895 28.55 86.4295 28.55C86.3395 28.55 86.2495 28.61 86.2195 28.7L84.9895 31.19C84.8995 31.37 84.9295 31.55 85.1095 31.64C86.2795 32.33 88.2295 33.11 90.8095 33.14C95.2495 33.14 98.3395 30.17 98.3095 25.61L98.2795 12.23C98.2795 12.05 98.1595 11.93 97.9795 11.93H96.0295C95.8795 11.93 95.7595 11.99 95.6695 12.23L95.1595 13.91C94.1695 12.44 92.6095 11.6 90.5695 11.6ZM86.8795 18.95C86.8795 16.58 88.4395 14.99 90.7795 14.99C93.2095 14.99 94.8595 16.58 94.8595 18.95C94.8595 21.32 93.2095 22.91 90.7795 22.91C88.4395 22.91 86.8795 21.32 86.8795 18.95ZM104.52 17.78C104.88 16.04 106.17 14.87 108.24 14.87C110.31 14.87 111.6 16.04 111.96 17.78H104.52ZM104.58 20.33H115.23C115.44 20.33 115.53 20.21 115.53 20.03C115.56 14.3 112.65 11.66 108.24 11.66C103.89 11.66 100.95 14.6 100.95 18.98C100.95 23.36 103.95 26.33 108.42 26.3C110.85 26.3 112.8 25.67 114.12 24.26C114.24 24.11 114.21 23.93 114.09 23.81L112.32 21.98C112.26 21.92 112.2 21.89 112.11 21.89C112.02 21.89 111.93 21.92 111.81 22.01C111.15 22.64 110.04 23.09 108.6 23.12C106.44 23.12 105.03 21.98 104.58 20.33ZM121.647 12.2C121.647 12.02 121.527 11.93 121.347 11.93H118.557C118.347 11.9 118.227 12.05 118.227 12.23V25.7C118.227 25.88 118.347 26 118.527 26H121.347C121.527 26 121.647 25.88 121.647 25.7V12.2ZM117.717 7.13C117.717 8.45 118.617 9.35 119.937 9.35C121.287 9.35 122.127 8.45 122.127 7.13C122.127 5.81 121.287 4.94 119.937 4.94C118.617 4.94 117.717 5.81 117.717 7.13ZM129.518 19.67V15.08H132.398C132.578 15.08 132.698 14.96 132.698 14.78V12.2C132.698 12.05 132.578 11.93 132.398 11.93H129.518V7.55C129.518 7.37 129.398 7.25 129.218 7.25H126.428C126.248 7.25 126.158 7.37 126.158 7.55L126.128 11.93H124.238C124.058 11.93 123.938 12.05 123.938 12.2V14.78C123.938 14.96 124.058 15.08 124.238 15.08H126.128V21.41C126.098 24.47 127.568 26.27 130.088 26.27C131.138 26.27 132.308 25.97 133.148 25.31C133.298 25.22 133.328 25.04 133.238 24.83L132.308 22.43C132.278 22.34 132.158 22.28 132.068 22.28C132.008 22.28 131.948 22.28 131.888 22.31C131.678 22.49 131.138 22.82 130.688 22.82C129.758 22.82 129.518 22.1 129.518 19.67ZM135.25 24.2C135.25 25.43 136.09 26.3 137.35 26.3C138.58 26.3 139.42 25.43 139.42 24.2C139.42 22.94 138.58 22.1 137.35 22.1C136.09 22.1 135.25 22.94 135.25 24.2ZM146.49 12.2C146.49 12.02 146.37 11.93 146.19 11.93H143.4C143.19 11.9 143.07 12.05 143.07 12.23V25.7C143.07 25.88 143.19 26 143.37 26H146.19C146.37 26 146.49 25.88 146.49 25.7V12.2ZM142.56 7.13C142.56 8.45 143.46 9.35 144.78 9.35C146.13 9.35 146.97 8.45 146.97 7.13C146.97 5.81 146.13 4.94 144.78 4.94C143.46 4.94 142.56 5.81 142.56 7.13ZM149.202 18.92C149.202 23.3 152.142 26.3 156.522 26.3C160.902 26.3 163.872 23.3 163.872 18.92C163.872 14.54 160.902 11.57 156.522 11.57C152.142 11.57 149.202 14.54 149.202 18.92ZM152.622 18.95C152.622 16.55 154.182 14.99 156.522 14.99C158.892 14.99 160.452 16.55 160.452 18.95C160.452 21.29 158.892 22.91 156.522 22.91C154.182 22.91 152.622 21.29 152.622 18.95Z" fill="#FFF5F4"/>
<path d="M14.9376 0.00810162C17.2563 0.00810162 19.5749 0.0330221 21.8936 0.00810162C23.1096 -0.00969874 23.6237 0.396149 23.3117 1.69914C22.4325 5.48705 21.6348 9.29634 20.7662 13.0914C19.348 19.3464 17.8164 25.5801 16.4621 31.8494C16.1076 33.5048 15.3985 34.0602 13.757 33.9569C11.7397 33.8323 9.71175 33.9569 7.69089 33.9C5.3155 33.8394 3.67401 32.2445 3.33011 29.8771C3.04648 27.9048 3.11384 25.9254 3.02167 23.9496C2.96494 22.6608 3.28757 22.4294 4.4859 23.024C6.96765 24.2593 9.42458 25.516 11.8425 26.8368C12.8246 27.3779 13.1685 27.4135 13.1933 26.1248C13.2181 24.836 12.7785 24.1133 11.6546 23.5615C8.07025 21.7993 4.52135 19.9623 0.958265 18.1645C0.511551 17.9366 -0.0238026 17.7586 0.00101492 17.1676C0.0258324 16.6443 0.571826 16.5197 0.951179 16.3275C4.51781 14.5261 8.09507 12.746 11.6617 10.9446C12.1758 10.6848 12.8671 10.5281 13.0267 9.90154C13.2323 9.10052 13.4805 8.12151 12.8565 7.50206C12.3247 6.98585 11.7042 7.75126 11.1653 8.02182C8.8715 9.16817 6.59539 10.3537 4.31927 11.5285C3.39038 12.0091 2.91885 11.856 3.01812 10.6883C3.19184 8.61992 3.03939 6.54083 3.31239 4.46887C3.66692 1.72049 5.34742 0.072182 8.11989 0.0294612C10.3996 -0.0203798 12.6579 0.00810162 14.9376 0.00810162Z" fill="white"/>
<path d="M26.4908 33.9682C24.2286 33.9682 21.9628 33.9432 19.7006 33.9682C18.3527 33.9896 17.8938 33.4792 18.2154 32.1407C19.4296 27.0292 20.586 21.8999 21.7749 16.792C22.9204 11.8697 24.1202 6.96167 25.2151 2.02867C25.5404 0.558053 26.2197 -0.113012 27.7881 0.0154888C30.1334 0.211809 32.4859 -0.223665 34.842 0.372435C36.9669 0.929272 37.9281 2.38204 38.1883 4.29885C38.4058 6.17114 38.5168 8.05402 38.5208 9.93859C38.5605 11.7233 38.2136 11.8661 36.5766 11.0094C34.3072 9.83865 32.0197 8.69286 29.7684 7.48281C28.6626 6.88671 28.2796 7.09731 28.2362 8.36447C28.1892 9.72087 28.5976 10.5276 29.931 11.138C33.4399 12.7442 36.8765 14.5111 40.3204 16.2565C40.7649 16.485 41.5527 16.5243 41.5165 17.2096C41.484 17.8128 40.8155 17.977 40.324 18.2233C36.8729 19.9509 33.458 21.75 29.9563 23.3884C28.5903 24.0273 28.1495 24.8839 28.2398 26.2975C28.3193 27.3469 28.547 27.6431 29.5805 27.0827C32.0053 25.7692 34.4698 24.527 36.9199 23.2634C38.2244 22.5888 38.4702 22.7316 38.5461 24.1593C38.6013 26.1447 38.4804 28.1309 38.1847 30.0954C38.0365 31.0651 37.5598 31.9565 36.8327 32.6243C36.1055 33.292 35.1706 33.6965 34.1807 33.7719C31.6294 33.954 29.0565 33.8147 26.4944 33.8147L26.4908 33.9682Z" fill="white"/>
</svg>
