<svg width="62" height="49" viewBox="0 0 62 49" fill="none" xmlns="http://www.w3.org/2000/svg">
<line x1="0.5" x2="0.5" y2="49" stroke="black"/>
<path d="M12.7728 33V15.5H19.7978C21.6144 15.5 22.9978 15.925 23.9478 16.775C24.9144 17.6083 25.3978 18.6833 25.3978 20C25.3978 21.1 25.0978 21.9833 24.4978 22.65C23.9144 23.3 23.1978 23.7417 22.3478 23.975C23.3478 24.175 24.1728 24.675 24.8228 25.475C25.4728 26.2583 25.7978 27.175 25.7978 28.225C25.7978 29.6083 25.2978 30.75 24.2978 31.65C23.2978 32.55 21.8811 33 20.0478 33H12.7728ZM15.9728 22.85H19.3228C20.2228 22.85 20.9144 22.6417 21.3978 22.225C21.8811 21.8083 22.1228 21.2167 22.1228 20.45C22.1228 19.7167 21.8811 19.1417 21.3978 18.725C20.9311 18.2917 20.2228 18.075 19.2728 18.075H15.9728V22.85ZM15.9728 30.4H19.5478C20.4978 30.4 21.2311 30.1833 21.7478 29.75C22.2811 29.3 22.5478 28.675 22.5478 27.875C22.5478 27.0583 22.2728 26.4167 21.7228 25.95C21.1728 25.4833 20.4311 25.25 19.4978 25.25H15.9728V30.4ZM28.4692 33V15H31.6692V33H28.4692ZM40.889 33.3C39.689 33.3 38.6056 33.025 37.639 32.475C36.689 31.925 35.9306 31.1667 35.364 30.2C34.814 29.2167 34.539 28.0833 34.539 26.8C34.539 25.5167 34.8223 24.3917 35.389 23.425C35.9556 22.4417 36.714 21.675 37.664 21.125C38.6306 20.575 39.714 20.3 40.914 20.3C42.0973 20.3 43.164 20.575 44.114 21.125C45.0806 21.675 45.839 22.4417 46.389 23.425C46.9556 24.3917 47.239 25.5167 47.239 26.8C47.239 28.0833 46.9556 29.2167 46.389 30.2C45.839 31.1667 45.0806 31.925 44.114 32.475C43.1473 33.025 42.0723 33.3 40.889 33.3ZM40.889 30.525C41.7223 30.525 42.4473 30.2167 43.064 29.6C43.6806 28.9667 43.989 28.0333 43.989 26.8C43.989 25.5667 43.6806 24.6417 43.064 24.025C42.4473 23.3917 41.7306 23.075 40.914 23.075C40.064 23.075 39.3306 23.3917 38.714 24.025C38.114 24.6417 37.814 25.5667 37.814 26.8C37.814 28.0333 38.114 28.9667 38.714 29.6C39.3306 30.2167 40.0556 30.525 40.889 30.525ZM54.5688 29.3C53.9688 29.3 53.4105 29.2333 52.8938 29.1L51.9688 30.025C52.2522 30.175 52.6355 30.3 53.1188 30.4C53.6022 30.5 54.3855 30.6 55.4688 30.7C57.1188 30.85 58.3188 31.2417 59.0688 31.875C59.8188 32.5083 60.1938 33.3833 60.1938 34.5C60.1938 35.2333 59.9938 35.925 59.5938 36.575C59.1938 37.2417 58.5772 37.775 57.7438 38.175C56.9105 38.5917 55.8438 38.8 54.5438 38.8C52.7772 38.8 51.3522 38.4667 50.2688 37.8C49.1855 37.15 48.6438 36.1667 48.6438 34.85C48.6438 33.7333 49.1855 32.7667 50.2688 31.95C49.9355 31.8 49.6438 31.6417 49.3938 31.475C49.1605 31.3083 48.9522 31.1333 48.7688 30.95V30.375L50.9438 28.075C49.9772 27.225 49.4938 26.1333 49.4938 24.8C49.4938 23.9667 49.6938 23.2083 50.0938 22.525C50.5105 21.8417 51.0938 21.3 51.8438 20.9C52.5938 20.5 53.5022 20.3 54.5688 20.3C55.2688 20.3 55.9188 20.4 56.5188 20.6H61.2188V22.55L59.0938 22.7C59.4272 23.3333 59.5938 24.0333 59.5938 24.8C59.5938 25.6333 59.3938 26.3917 58.9938 27.075C58.5938 27.7583 58.0105 28.3 57.2438 28.7C56.4938 29.1 55.6022 29.3 54.5688 29.3ZM54.5688 26.85C55.2188 26.85 55.7522 26.675 56.1688 26.325C56.6022 25.975 56.8188 25.475 56.8188 24.825C56.8188 24.175 56.6022 23.675 56.1688 23.325C55.7522 22.975 55.2188 22.8 54.5688 22.8C53.8855 22.8 53.3355 22.975 52.9188 23.325C52.5022 23.675 52.2938 24.175 52.2938 24.825C52.2938 25.475 52.5022 25.975 52.9188 26.325C53.3355 26.675 53.8855 26.85 54.5688 26.85ZM51.5688 34.525C51.5688 35.1417 51.8522 35.6 52.4188 35.9C53.0022 36.2167 53.7105 36.375 54.5438 36.375C55.3438 36.375 55.9938 36.2083 56.4938 35.875C56.9938 35.5583 57.2438 35.125 57.2438 34.575C57.2438 34.125 57.0772 33.75 56.7438 33.45C56.4272 33.15 55.7855 32.9667 54.8188 32.9C54.1355 32.85 53.5022 32.775 52.9188 32.675C52.4355 32.9417 52.0855 33.2333 51.8688 33.55C51.6688 33.8667 51.5688 34.1917 51.5688 34.525Z" fill="black"/>
</svg>
